<svg xmlns="http://www.w3.org/2000/svg" width="40" height="41" viewBox="0 0 52 52" fill="white" preserveAspectRatio="xMinYMin" role="img" stroke="none"><svg x="10" y="10"><path d="M31,15.6L31,15.6C31,7,24.1,0.1,15.5,0.1C6.9,0.1,0,7,0,15.6c0,4.7,2.1,8.8,5.3,11.7l0.2,0.4c0,0,0.1,0,0.1-0.1c2.7,2.2,6.1,3.6,9.9,3.6c7.9,0,14.4-5.9,15.4-13.6H31V15.6z M29.1,15.6C29.1,15.6,29.1,15.6,29.1,15.6l-4.8,0c0-2.9-0.4-5.6-1.2-7.9c0.1-0.1,0.2-0.1,0.3-0.2c0.2-0.1,1.2-0.7,1.4-0.9c0.2-0.1,0.4-0.2,0.6-0.4C27.7,8.7,29.1,12,29.1,15.6z M23,25.8c0.3,0.2,0.6,0.4,0.9,0.5c-1,0.7-2,1.4-3.2,1.8c0.6-0.8,1.2-1.7,1.6-2.7C22.5,25.5,22.8,25.7,23,25.8z M8.9,25.7c0.4,0.9,0.9,1.7,1.5,2.4c-1-0.4-2-1-2.8-1.6c0.4-0.2,1-0.6,1.2-0.7C8.8,25.8,8.8,25.7,8.9,25.7z M8.7,15.6c0-2.5,0.4-4.9,1-6.9c1.5,0.5,3.1,0.8,4.8,0.8v6.1L8.7,15.6C8.7,15.6,8.7,15.6,8.7,15.6z M8.1,5.9C7.6,5.6,7.2,5.4,6.9,5.1c1-0.9,2.2-1.6,3.5-2.1C9.7,3.9,9.1,5,8.6,6.1C8.4,6.1,8.2,6,8.1,5.9z M22.3,5.8c-0.5-1.1-1-2-1.7-2.8c1.2,0.5,2.2,1.1,3.2,1.9c0,0-0.1,0-0.1,0.1C23.5,5.1,22.6,5.7,22.3,5.8C22.3,5.8,22.3,5.8,22.3,5.8z M16.5,2.2c1.6,0.5,3.1,2.1,4.1,4.5c-1.2,0.5-2.4,0.7-4.1,0.8V2.2z M14.5,2.2v5.4c-1.5,0-2.9-0.3-4.2-0.7C11.4,4.4,12.9,2.7,14.5,2.2z M14.5,17.5v4.6c-1.9,0.1-3.3,0.4-4.7,0.9c-0.5-1.6-0.9-3.5-1.1-5.5H14.5z M14.5,24.1V29c-1.5-0.5-2.9-2-3.9-4.1C11.7,24.4,12.9,24.2,14.5,24.1z M16.5,29v-4.9c1.4,0,2.8,0.2,4,0.6C19.4,27,18,28.5,16.5,29z M16.5,22.1v-4.6h5.7c-0.1,2-0.5,3.8-1,5.4C19.7,22.4,18.2,22.2,16.5,22.1z M16.5,15.6V9.5c2-0.1,3.4-0.4,4.8-0.9c0.6,2.1,1,4.5,1,7.1c0,0,0,0,0,0H16.5z M5.5,6.5c0.5,0.3,1,0.7,1.7,1.1C7.4,7.7,7.6,7.8,7.9,8c-0.7,2.3-1.1,4.9-1.1,7.6H1.9c0,0,0,0,0,0C1.9,12.1,3.3,8.9,5.5,6.5z M2.1,17.5h4.8C7,19.9,7.5,22,8.1,23.9C8,24,7.8,24.1,7.7,24.1c-0.2,0.1-1.2,0.7-1.4,0.9c-0.1,0.1-0.2,0.1-0.4,0.2C3.9,23.2,2.5,20.5,2.1,17.5z M25.3,25c-0.4-0.3-0.9-0.6-1.4-0.9c-0.3-0.2-0.6-0.3-0.9-0.5c0.6-1.8,1-3.9,1.2-6.1h4.8C28.5,20.4,27.2,23,25.3,25z"></path></svg></svg>